<svg width="33" height="32" viewBox="0 0 33 32" fill="none" xmlns="http://www.w3.org/2000/svg">
<path d="M18 11.5H15V8.49997H18M18 23.5H15V14.5H18M16.5 0.999969C14.5302 0.999969 12.5797 1.38796 10.7598 2.14178C8.93991 2.8956 7.28632 4.00049 5.89344 5.39337C3.08039 8.20641 1.50004 12.0217 1.50004 16C1.50004 19.9782 3.08039 23.7935 5.89344 26.6066C7.28632 27.9995 8.93991 29.1043 10.7598 29.8582C12.5797 30.612 14.5302 31 16.5 31C20.4783 31 24.2936 29.4196 27.1066 26.6066C29.9197 23.7935 31.5 19.9782 31.5 16C31.5 14.0301 31.1121 12.0796 30.3582 10.2597C29.6044 8.43983 28.4995 6.78625 27.1066 5.39337C25.7138 4.00049 24.0602 2.8956 22.2403 2.14178C20.4204 1.38796 18.4699 0.999969 16.5 0.999969Z" fill="#F2F2F2"/>
</svg>
