<svg width="33" height="32" viewBox="0 0 33 32" fill="none" xmlns="http://www.w3.org/2000/svg">
<path d="M3.5 9.33335C3.5 8.36089 3.88631 7.42826 4.57394 6.74063C5.26158 6.053 6.19421 5.66669 7.16667 5.66669H25.8333C26.8058 5.66669 27.7384 6.053 28.4261 6.74063C29.1137 7.42826 29.5 8.36089 29.5 9.33335V13.3334C29.5 13.5986 29.3946 13.8529 29.2071 14.0405C29.0196 14.228 28.7652 14.3334 28.5 14.3334C28.058 14.3334 27.634 14.5089 27.3215 14.8215C27.0089 15.1341 26.8333 15.558 26.8333 16C26.8333 16.442 27.0089 16.866 27.3215 17.1785C27.634 17.4911 28.058 17.6667 28.5 17.6667C28.7652 17.6667 29.0196 17.772 29.2071 17.9596C29.3946 18.1471 29.5 18.4015 29.5 18.6667V22.6667C29.5 23.6391 29.1137 24.5718 28.4261 25.2594C27.7384 25.947 26.8058 26.3334 25.8333 26.3334H7.16667C6.19421 26.3334 5.26158 25.947 4.57394 25.2594C3.88631 24.5718 3.5 23.6391 3.5 22.6667V18.6667C3.5 18.4015 3.60536 18.1471 3.79289 17.9596C3.98043 17.772 4.23478 17.6667 4.5 17.6667C4.94203 17.6667 5.36595 17.4911 5.67851 17.1785C5.99107 16.866 6.16667 16.442 6.16667 16C6.16667 15.558 5.99107 15.1341 5.67851 14.8215C5.36595 14.5089 4.94203 14.3334 4.5 14.3334C4.23478 14.3334 3.98043 14.228 3.79289 14.0405C3.60536 13.8529 3.5 13.5986 3.5 13.3334V9.33335ZM17.5 10.6667C17.5 10.4015 17.3946 10.1471 17.2071 9.95958C17.0196 9.77204 16.7652 9.66669 16.5 9.66669C16.2348 9.66669 15.9804 9.77204 15.7929 9.95958C15.6054 10.1471 15.5 10.4015 15.5 10.6667V11.3334C15.5 11.5986 15.6054 11.8529 15.7929 12.0405C15.9804 12.228 16.2348 12.3334 16.5 12.3334C16.7652 12.3334 17.0196 12.228 17.2071 12.0405C17.3946 11.8529 17.5 11.5986 17.5 11.3334V10.6667ZM17.5 15.6667C17.5 15.4015 17.3946 15.1471 17.2071 14.9596C17.0196 14.772 16.7652 14.6667 16.5 14.6667C16.2348 14.6667 15.9804 14.772 15.7929 14.9596C15.6054 15.1471 15.5 15.4015 15.5 15.6667V16.3334C15.5 16.5986 15.6054 16.8529 15.7929 17.0405C15.9804 17.228 16.2348 17.3334 16.5 17.3334C16.7652 17.3334 17.0196 17.228 17.2071 17.0405C17.3946 16.8529 17.5 16.5986 17.5 16.3334V15.6667ZM17.5 20.6667C17.5 20.4015 17.3946 20.1471 17.2071 19.9596C17.0196 19.772 16.7652 19.6667 16.5 19.6667C16.2348 19.6667 15.9804 19.772 15.7929 19.9596C15.6054 20.1471 15.5 20.4015 15.5 20.6667V21.3334C15.5 21.5986 15.6054 21.8529 15.7929 22.0405C15.9804 22.228 16.2348 22.3334 16.5 22.3334C16.7652 22.3334 17.0196 22.228 17.2071 22.0405C17.3946 21.8529 17.5 21.5986 17.5 21.3334V20.6667Z" fill="#F2F2F2"/>
</svg>
