<svg width="33" height="32" viewBox="0 0 33 32" fill="none" xmlns="http://www.w3.org/2000/svg">
<path d="M4.5 7.00001C4.23478 7.00001 3.98043 7.10537 3.79289 7.29291C3.60536 7.48044 3.5 7.7348 3.5 8.00001C3.5 8.26523 3.60536 8.51958 3.79289 8.70712C3.98043 8.89465 4.23478 9.00001 4.5 9.00001H6.72L9.344 19.5C9.567 20.39 10.364 21 11.281 21H23.751C24.654 21 25.421 20.4 25.658 19.53L28.25 10H26.156L23.75 19H11.28L8.657 8.50001C8.54865 8.06924 8.29888 7.68729 7.94768 7.41533C7.59648 7.14336 7.16418 6.99712 6.72 7.00001H4.5ZM22.5 21C20.855 21 19.5 22.355 19.5 24C19.5 25.645 20.855 27 22.5 27C24.145 27 25.5 25.645 25.5 24C25.5 22.355 24.145 21 22.5 21ZM13.5 21C11.855 21 10.5 22.355 10.5 24C10.5 25.645 11.855 27 13.5 27C15.145 27 16.5 25.645 16.5 24C16.5 22.355 15.145 21 13.5 21ZM16.5 7.00001V12H13.5L17.5 16L21.5 12H18.5V7.00001H16.5ZM13.5 23C14.064 23 14.5 23.436 14.5 24C14.5 24.564 14.064 25 13.5 25C12.936 25 12.5 24.564 12.5 24C12.5 23.436 12.936 23 13.5 23ZM22.5 23C23.064 23 23.5 23.436 23.5 24C23.5 24.564 23.064 25 22.5 25C21.936 25 21.5 24.564 21.5 24C21.5 23.436 21.936 23 22.5 23Z" fill="#CCD97D"/>
</svg>
