<svg width="33" height="32" viewBox="0 0 33 32" fill="none" xmlns="http://www.w3.org/2000/svg">
<path d="M25.8333 5.33335H23.1667V4.00002C23.1667 3.6464 23.0262 3.30726 22.7761 3.05721C22.5261 2.80716 22.187 2.66669 21.8333 2.66669C21.4797 2.66669 21.1406 2.80716 20.8905 3.05721C20.6405 3.30726 20.5 3.6464 20.5 4.00002V5.33335H12.5V4.00002C12.5 3.6464 12.3595 3.30726 12.1095 3.05721C11.8594 2.80716 11.5203 2.66669 11.1667 2.66669C10.813 2.66669 10.4739 2.80716 10.2239 3.05721C9.97381 3.30726 9.83333 3.6464 9.83333 4.00002V5.33335H7.16667C6.1058 5.33335 5.08839 5.75478 4.33824 6.50493C3.5881 7.25507 3.16667 8.27249 3.16667 9.33335V25.3334C3.16667 26.3942 3.5881 27.4116 4.33824 28.1618C5.08839 28.9119 6.1058 29.3334 7.16667 29.3334H25.8333C26.8942 29.3334 27.9116 28.9119 28.6618 28.1618C29.4119 27.4116 29.8333 26.3942 29.8333 25.3334V9.33335C29.8333 8.27249 29.4119 7.25507 28.6618 6.50493C27.9116 5.75478 26.8942 5.33335 25.8333 5.33335ZM27.1667 25.3334C27.1667 25.687 27.0262 26.0261 26.7761 26.2762C26.5261 26.5262 26.187 26.6667 25.8333 26.6667H7.16667C6.81305 26.6667 6.47391 26.5262 6.22386 26.2762C5.97381 26.0261 5.83333 25.687 5.83333 25.3334V16H27.1667V25.3334ZM27.1667 13.3334H5.83333V9.33335C5.83333 8.97973 5.97381 8.64059 6.22386 8.39054C6.47391 8.1405 6.81305 8.00002 7.16667 8.00002H9.83333V9.33335C9.83333 9.68698 9.97381 10.0261 10.2239 10.2762C10.4739 10.5262 10.813 10.6667 11.1667 10.6667C11.5203 10.6667 11.8594 10.5262 12.1095 10.2762C12.3595 10.0261 12.5 9.68698 12.5 9.33335V8.00002H20.5V9.33335C20.5 9.68698 20.6405 10.0261 20.8905 10.2762C21.1406 10.5262 21.4797 10.6667 21.8333 10.6667C22.187 10.6667 22.5261 10.5262 22.7761 10.2762C23.0262 10.0261 23.1667 9.68698 23.1667 9.33335V8.00002H25.8333C26.187 8.00002 26.5261 8.1405 26.7761 8.39054C27.0262 8.64059 27.1667 8.97973 27.1667 9.33335V13.3334Z" fill="#F2F2F2"/>
</svg>
