<svg width="33" height="32" viewBox="0 0 33 32" fill="none" xmlns="http://www.w3.org/2000/svg">
<path d="M5.83333 5.33331L8.5 10.6666H12.5L9.83333 5.33331H12.5L15.1667 10.6666H19.1667L16.5 5.33331H19.1667L21.8333 10.6666H25.8333L23.1667 5.33331H27.1667C27.9 5.33331 28.528 5.59465 29.0507 6.11731C29.5733 6.63998 29.8342 7.26754 29.8333 7.99998V24C29.8333 24.7333 29.5724 25.3613 29.0507 25.884C28.5289 26.4066 27.9009 26.6675 27.1667 26.6666H5.83333C5.1 26.6666 4.47245 26.4058 3.95067 25.884C3.42889 25.3622 3.16756 24.7342 3.16667 24V7.99998C3.16667 7.26665 3.428 6.63909 3.95067 6.11731C4.47333 5.59553 5.10089 5.3342 5.83333 5.33331ZM5.83333 13.3333V24H27.1667V13.3333H5.83333Z" fill="#F2F2F2"/>
</svg>
