<svg width="32" height="32" viewBox="0 0 32 32" fill="none" xmlns="http://www.w3.org/2000/svg">
<path d="M4 6.99998C3.73478 6.99998 3.48043 7.10534 3.29289 7.29287C3.10536 7.48041 3 7.73476 3 7.99998C3 8.2652 3.10536 8.51955 3.29289 8.70709C3.48043 8.89462 3.73478 8.99998 4 8.99998H6.22L8.844 19.5C9.067 20.39 9.864 21 10.781 21H23.251C24.154 21 24.921 20.4 25.158 19.53L27.75 9.99998H25.656L23.25 19H10.78L8.157 8.49998C8.04865 8.06921 7.79888 7.68726 7.44768 7.41529C7.09648 7.14333 6.66418 6.99709 6.22 6.99998H4ZM22 21C20.355 21 19 22.355 19 24C19 25.645 20.355 27 22 27C23.645 27 25 25.645 25 24C25 22.355 23.645 21 22 21ZM13 21C11.355 21 10 22.355 10 24C10 25.645 11.355 27 13 27C14.645 27 16 25.645 16 24C16 22.355 14.645 21 13 21ZM16 6.99998V12H13L17 16L21 12H18V6.99998H16ZM13 23C13.564 23 14 23.436 14 24C14 24.564 13.564 25 13 25C12.436 25 12 24.564 12 24C12 23.436 12.436 23 13 23ZM22 23C22.564 23 23 23.436 23 24C23 24.564 22.564 25 22 25C21.436 25 21 24.564 21 24C21 23.436 21.436 23 22 23Z" fill="#F2F2F2"/>
</svg>
