<svg width="32" height="33" viewBox="0 0 32 33" fill="none" xmlns="http://www.w3.org/2000/svg">
<g clip-path="url(#clip0_270_32)">
<path d="M8.94667 0.781738H22.3867C24.8479 0.781738 27.2083 1.75945 28.9486 3.49979C30.689 5.24013 31.6667 7.60053 31.6667 10.0617V23.5017C31.6667 25.9629 30.689 28.3234 28.9486 30.0637C27.2083 31.804 24.8479 32.7817 22.3867 32.7817H8.94667C6.48546 32.7817 4.12505 31.804 2.38472 30.0637C0.644379 28.3234 -0.333332 25.9629 -0.333332 23.5017V10.0617C-0.333332 7.60053 0.644379 5.24013 2.38472 3.49979C4.12505 1.75945 6.48546 0.781738 8.94667 0.781738ZM8.62667 3.98174C7.09902 3.98174 5.63394 4.58859 4.55373 5.6688C3.47352 6.74901 2.86667 8.21409 2.86667 9.74174V23.8217C2.86667 25.3494 3.47352 26.8145 4.55373 27.8947C5.63394 28.9749 7.09902 29.5817 8.62667 29.5817H22.7067C24.2343 29.5817 25.6994 28.9749 26.7796 27.8947C27.8598 26.8145 28.4667 25.3494 28.4667 23.8217V9.74174C28.4667 8.21409 27.8598 6.74901 26.7796 5.6688C25.6994 4.58859 24.2343 3.98174 22.7067 3.98174H8.62667ZM24.0667 6.38174C24.4622 6.38174 24.8489 6.49904 25.1778 6.7188C25.5067 6.93856 25.7631 7.25092 25.9144 7.61637C26.0658 7.98182 26.1054 8.38396 26.0282 8.77192C25.9511 9.15988 25.7606 9.51625 25.4809 9.79595C25.2012 10.0757 24.8448 10.2661 24.4569 10.3433C24.0689 10.4205 23.6668 10.3809 23.3013 10.2295C22.9358 10.0781 22.6235 9.82178 22.4037 9.49288C22.184 9.16398 22.0667 8.7773 22.0667 8.38174C22.0667 7.85131 22.2774 7.3426 22.6525 6.96753C23.0275 6.59245 23.5362 6.38174 24.0667 6.38174ZM15.6667 8.78174C17.2489 8.78174 18.7956 9.25093 20.1112 10.13C21.4268 11.009 22.4522 12.2585 23.0577 13.7203C23.6632 15.1821 23.8216 16.7906 23.513 18.3425C23.2043 19.8943 22.4423 21.3198 21.3235 22.4386C20.2047 23.5574 18.7792 24.3193 17.2274 24.628C15.6755 24.9367 14.067 24.7783 12.6052 24.1728C11.1434 23.5673 9.89396 22.5419 9.01491 21.2263C8.13586 19.9107 7.66667 18.364 7.66667 16.7817C7.66667 14.66 8.50952 12.6252 10.0098 11.1249C11.5101 9.62459 13.5449 8.78174 15.6667 8.78174ZM15.6667 11.9817C14.7173 11.9817 13.7893 12.2633 12.9999 12.7907C12.2106 13.3181 11.5953 14.0678 11.232 14.9449C10.8687 15.8219 10.7737 16.7871 10.9589 17.7182C11.1441 18.6493 11.6013 19.5046 12.2726 20.1759C12.9438 20.8471 13.7991 21.3043 14.7302 21.4895C15.6613 21.6747 16.6265 21.5797 17.5035 21.2164C18.3806 20.8531 19.1303 20.2378 19.6577 19.4485C20.1852 18.6591 20.4667 17.7311 20.4667 16.7817C20.4667 15.5087 19.961 14.2878 19.0608 13.3876C18.1606 12.4875 16.9397 11.9817 15.6667 11.9817Z" fill="#F2F2F2"/>
</g>
<defs>
<clipPath id="clip0_270_32">
<rect width="32" height="32" fill="white" transform="translate(0 0.781738)"/>
</clipPath>
</defs>
</svg>
