<svg width="32" height="32" viewBox="0 0 32 32" fill="none" xmlns="http://www.w3.org/2000/svg">
<mask id="mask0_270_928" style="mask-type:luminance" maskUnits="userSpaceOnUse" x="4" y="1" width="25" height="26">
<path d="M4.35579 1.46693H28.2717V26.3076H4.35579V1.46693Z" fill="white"/>
</mask>
<g mask="url(#mask0_270_928)">
<mask id="mask1_270_928" style="mask-type:luminance" maskUnits="userSpaceOnUse" x="4" y="1" width="25" height="26">
<path d="M4.35579 1.46693H28.2717V26.3076H4.35579V1.46693Z" fill="white"/>
</mask>
<g mask="url(#mask1_270_928)">
<path d="M13.449 5.19542C10.2469 6.1986 7.80181 8.80202 7.00121 12.0606C6.20062 15.3193 7.16094 18.7594 9.53358 21.1322C9.58141 21.18 9.63323 21.2282 9.68146 21.28C9.04242 21.6799 8.43383 22.1265 7.86066 22.6161L7.75703 22.705C4.76038 19.635 3.63754 15.1952 4.81442 11.0697C5.9913 6.94416 9.28761 3.76498 13.453 2.73807C13.2641 3.47468 13.3418 4.26669 13.449 5.19542Z" fill="#CCD97D"/>
</g>
<mask id="mask2_270_928" style="mask-type:luminance" maskUnits="userSpaceOnUse" x="4" y="1" width="25" height="26">
<path d="M4.35579 1.46693H28.2717V26.3076H4.35579V1.46693Z" fill="white"/>
</mask>
<g mask="url(#mask2_270_928)">
<path d="M16.6653 2.39766C21.6841 2.54572 26.0758 5.81325 27.6599 10.5778C29.244 15.3423 27.6829 20.589 23.7518 23.7126C19.8208 26.8362 14.3571 27.1714 10.0737 24.5517C10.8483 24.0037 11.6813 23.5432 12.5573 23.1786C15.891 24.5967 19.7392 24.0158 22.5058 21.677C25.2724 19.3382 26.4854 15.6403 25.6418 12.1171C24.7982 8.594 22.0418 5.84658 18.516 5.01445C18.2669 4.65133 17.9878 4.28861 17.7088 3.92588C17.2983 3.39296 16.8873 2.86203 16.6653 2.39766Z" fill="#6C733D"/>
</g>
<mask id="mask3_270_928" style="mask-type:luminance" maskUnits="userSpaceOnUse" x="4" y="1" width="25" height="26">
<path d="M4.35579 1.46693H28.2717V26.3076H4.35579V1.46693Z" fill="white"/>
</mask>
<g mask="url(#mask3_270_928)">
<path d="M20.5787 21.2613C19.4499 20.5988 18.1991 20.1289 16.926 19.8327C14.6093 19.2998 12.2293 19.3369 10.316 19.8291V17.3865C12.5442 16.9537 15.1458 16.9684 17.655 17.5496C19.2761 17.927 20.8713 18.5337 22.311 19.4074L20.5787 21.2613Z" fill="#6C733D"/>
</g>
<mask id="mask4_270_928" style="mask-type:luminance" maskUnits="userSpaceOnUse" x="4" y="1" width="25" height="26">
<path d="M4.35579 1.46693H28.2717V26.3076H4.35579V1.46693Z" fill="white"/>
</mask>
<g mask="url(#mask4_270_928)">
<path d="M20.5476 16.3689C19.4264 15.7136 18.1863 15.2528 16.9244 14.9587C14.6077 14.4214 12.2277 14.4612 10.3144 14.9511V12.5125C12.5426 12.074 15.1442 12.0939 17.6534 12.6751C19.2745 13.049 20.8697 13.6596 22.3094 14.533L20.5476 16.3689Z" fill="#6C733D"/>
</g>
<mask id="mask5_270_928" style="mask-type:luminance" maskUnits="userSpaceOnUse" x="4" y="1" width="25" height="26">
<path d="M4.35579 1.46693H28.2717V26.3076H4.35579V1.46693Z" fill="white"/>
</mask>
<g mask="url(#mask5_270_928)">
<path d="M10.3144 17.0166C11.6948 16.3542 13.2198 15.836 14.7963 15.4509C17.2576 14.8531 19.8816 14.5776 22.3094 14.5888L22.2983 16.9461C20.1331 16.9389 17.7794 17.1852 15.5588 17.7269C13.6084 18.2009 11.7837 18.8928 10.3144 19.8291V17.0166Z" fill="#CCD97D"/>
</g>
<mask id="mask6_270_928" style="mask-type:luminance" maskUnits="userSpaceOnUse" x="4" y="1" width="25" height="26">
<path d="M4.35579 1.46693H28.2717V26.3076H4.35579V1.46693Z" fill="white"/>
</mask>
<g mask="url(#mask6_270_928)">
<path d="M10.3144 12.1422C11.6948 11.4761 13.2198 10.9579 14.7963 10.5769C17.2576 9.97699 19.8816 9.70316 22.3094 9.71432L22.2983 12.072C20.1331 12.0609 17.7794 12.3088 15.5588 12.8493C13.6084 13.3228 11.7837 14.0188 10.3144 14.9511V12.1422Z" fill="#CCD97D"/>
</g>
<mask id="mask7_270_928" style="mask-type:luminance" maskUnits="userSpaceOnUse" x="4" y="1" width="25" height="26">
<path d="M4.35579 1.46693H28.2717V26.3076H4.35579V1.46693Z" fill="white"/>
</mask>
<g mask="url(#mask7_270_928)">
<path d="M8.63035 23.5118C10.2738 22.1091 12.154 21.1541 14.1374 20.5139C16.808 19.6589 19.6448 19.3979 22.3086 19.4074L22.2975 21.7647C19.9334 21.7556 17.4298 21.9832 15.1179 22.7269C13.5857 23.2192 12.1312 23.9411 10.8394 24.9846C10.0509 24.5768 9.30999 24.0829 8.63035 23.5118Z" fill="#CCD97D"/>
</g>
<mask id="mask8_270_928" style="mask-type:luminance" maskUnits="userSpaceOnUse" x="4" y="1" width="25" height="26">
<path d="M4.35579 1.46693H28.2717V26.3076H4.35579V1.46693Z" fill="white"/>
</mask>
<g mask="url(#mask8_270_928)">
<path d="M15.5365 1.46693C15.0848 3.82464 20.0805 6.31508 17.757 8.70627C16.6948 9.79803 14.9924 10.2827 13.7416 9.13556C12.9902 8.44718 12.7754 6.87391 13.3753 5.9675C13.9377 7.89552 14.5447 6.29316 14.5001 5.51589C14.4403 4.50345 13.7416 2.86203 15.5365 1.46693Z" fill="#CCD97D"/>
</g>
</g>
<path d="M2.31661 29.1338C2.44898 28.8857 2.63689 28.6925 2.88033 28.5541C3.12377 28.4156 3.40373 28.3464 3.7202 28.3464C4.12188 28.3464 4.45966 28.4536 4.73353 28.6682C5.0074 28.8827 5.1839 29.1741 5.26302 29.5423H4.2999C4.24208 29.4206 4.1622 29.3277 4.06026 29.2638C3.95832 29.1999 3.8404 29.168 3.70651 29.168C3.49958 29.168 3.3345 29.2418 3.21126 29.3894C3.08802 29.537 3.0264 29.734 3.0264 29.9805C3.0264 30.23 3.08802 30.4286 3.21126 30.5761C3.3345 30.7237 3.49958 30.7975 3.70651 30.7975C3.8404 30.7975 3.95832 30.7656 4.06026 30.7017C4.1622 30.6378 4.24208 30.545 4.2999 30.4232H5.26302C5.1839 30.7914 5.0074 31.0828 4.73353 31.2973C4.45966 31.5119 4.12188 31.6191 3.7202 31.6191C3.40373 31.6191 3.12377 31.5499 2.88033 31.4115C2.63689 31.273 2.44898 31.0798 2.31661 30.8318C2.18424 30.5838 2.11805 30.3 2.11805 29.9805C2.11805 29.664 2.18424 29.3818 2.31661 29.1338ZM6.57758 28.3783V31.5963H5.68293V28.3783H6.57758ZM10.0648 31.5963H9.17016L7.97882 29.7979V31.5963H7.08417V28.3783H7.97882L9.17016 30.1996V28.3783H10.0648V31.5963ZM11.4662 29.095V29.6199H12.4932V30.3H11.4662V30.8797H12.6301V31.5963H10.5715V28.3783H12.6301V29.095H11.4662ZM12.1372 27.7439L10.996 28.1912V27.5841L12.1372 27.0683V27.7439ZM16.8248 28.3783V31.5963H15.9302V29.8207L15.3231 31.5963H14.5745L13.9629 29.807V31.5963H13.0682V28.3783H14.15L14.9579 30.4689L15.7476 28.3783H16.8248ZM19.3673 31.0714H18.2261L18.0527 31.5963H17.1124L18.2855 28.3783H19.317L20.4856 31.5963H19.5407L19.3673 31.0714ZM19.1436 30.3867L18.7967 29.346L18.4543 30.3867H19.1436ZM22.8272 29.4373C22.7755 29.3521 22.7047 29.2867 22.6149 29.241C22.5252 29.1954 22.4194 29.1726 22.2977 29.1726C22.0725 29.1726 21.8953 29.2456 21.7659 29.3917C21.6366 29.5377 21.5719 29.734 21.5719 29.9805C21.5719 30.2574 21.6412 30.4681 21.7796 30.6127C21.9181 30.7572 22.1197 30.8295 22.3844 30.8295C22.6979 30.8295 22.9215 30.688 23.0554 30.405H22.1562V29.7614H23.8268V30.6286C23.7568 30.799 23.6541 30.9588 23.5187 31.1079C23.3833 31.257 23.2121 31.3795 23.0052 31.4754C22.7983 31.5712 22.5625 31.6191 22.2977 31.6191C21.9751 31.6191 21.6899 31.5499 21.4419 31.4115C21.1939 31.273 21.0021 31.0798 20.8667 30.8318C20.7313 30.5838 20.6636 30.3 20.6636 29.9805C20.6636 29.664 20.7313 29.3818 20.8667 29.1338C21.0021 28.8857 21.1931 28.6925 21.4396 28.5541C21.6861 28.4156 21.9706 28.3464 22.2931 28.3464C22.6979 28.3464 23.0326 28.4438 23.2973 28.6385C23.5621 28.8333 23.7264 29.0995 23.7903 29.4373H22.8272ZM27.2047 31.5963H26.31L25.1187 29.7979V31.5963H24.224V28.3783H25.1187L26.31 30.1996V28.3783H27.2047V31.5963ZM30.6373 28.3783L29.5053 30.5739V31.5963H28.606V30.5739L27.474 28.3783H28.4965L29.0625 29.6199L29.6285 28.3783H30.6373Z" fill="#F2F2F2"/>
</svg>
