<svg width="33" height="32" viewBox="0 0 33 32" fill="none" xmlns="http://www.w3.org/2000/svg">
<path d="M5.83333 26.6667C5.1 26.6667 4.47245 26.4058 3.95067 25.884C3.42889 25.3622 3.16756 24.7342 3.16667 24V8.00001C3.16667 7.26668 3.428 6.63912 3.95067 6.11734C4.47333 5.59557 5.10089 5.33423 5.83333 5.33334H27.1667C27.9 5.33334 28.528 5.59468 29.0507 6.11734C29.5733 6.64001 29.8342 7.26757 29.8333 8.00001V24C29.8333 24.7333 29.5724 25.3613 29.0507 25.884C28.5289 26.4067 27.9009 26.6676 27.1667 26.6667H5.83333ZM16.5 17.3333L27.1667 10.6667V8.00001L16.5 14.6667L5.83333 8.00001V10.6667L16.5 17.3333Z" fill="#F2F2F2"/>
</svg>
