<svg width="33" height="32" viewBox="0 0 33 32" fill="none" xmlns="http://www.w3.org/2000/svg">
<path d="M5.83341 26.6667C5.10008 26.6667 4.47253 26.4058 3.95075 25.884C3.42897 25.3623 3.16764 24.7343 3.16675 24V8.00004C3.16675 7.26671 3.42808 6.63915 3.95075 6.11737C4.47341 5.5956 5.10097 5.33426 5.83341 5.33337H27.1667C27.9001 5.33337 28.5281 5.59471 29.0507 6.11737C29.5734 6.64004 29.8343 7.2676 29.8334 8.00004V24C29.8334 24.7334 29.5725 25.3614 29.0507 25.884C28.529 26.4067 27.901 26.6676 27.1667 26.6667H5.83341ZM16.5001 17.3334L27.1667 10.6667V8.00004L16.5001 14.6667L5.83341 8.00004V10.6667L16.5001 17.3334Z" fill="#202427"/>
</svg>
