<svg width="33" height="32" viewBox="0 0 33 32" fill="none" xmlns="http://www.w3.org/2000/svg">
<path d="M16.5 27.5187C14.6026 27.5201 12.734 27.054 11.0596 26.1614C9.38516 25.2689 7.95659 23.9774 6.90007 22.4013C6.9134 21.412 7.55325 19.9693 10.5173 18.7213C12.3989 17.8748 14.4387 17.4371 16.502 17.4371C18.5652 17.4371 20.605 17.8748 22.4867 18.7213C25.4533 19.972 26.0867 21.412 26.104 22.4013C25.0463 23.9772 23.6169 25.2683 21.9419 26.1608C20.2669 27.0533 18.3979 27.5196 16.5 27.5187ZM16.5 14.3987C15.5507 14.3987 14.6227 14.1172 13.8333 13.5897C13.044 13.0623 12.4287 12.3126 12.0654 11.4356C11.7021 10.5585 11.6069 9.59335 11.7922 8.66224C11.9774 7.73113 12.4347 6.87585 13.106 6.20456C13.7773 5.53327 14.6325 5.07612 15.5636 4.89091C16.4948 4.7057 17.4598 4.80076 18.3369 5.16406C19.214 5.52736 19.9636 6.14258 20.491 6.93194C21.0185 7.7213 21.3 8.64932 21.3 9.59867C21.3005 10.2294 21.1767 10.854 20.9357 11.4368C20.6947 12.0196 20.3413 12.5492 19.8955 12.9954C19.4497 13.4415 18.9204 13.7954 18.3377 14.0369C17.7551 14.2784 17.1307 14.4027 16.5 14.4027V14.3987Z" fill="#F2F2F2"/>
</svg>
