<svg width="33" height="33" viewBox="0 0 33 33" fill="none" xmlns="http://www.w3.org/2000/svg">
<path d="M22.7556 8.54174C21.8443 7.50111 21.3421 6.16494 21.3422 4.78174H17.2222V21.3151C17.1911 22.21 16.8136 23.0578 16.1693 23.6797C15.525 24.3016 14.6643 24.6489 13.7689 24.6484C11.8756 24.6484 10.3022 23.1017 10.3022 21.1817C10.3022 18.8884 12.5156 17.1684 14.7956 17.8751V13.6617C10.1956 13.0484 6.16888 16.6217 6.16888 21.1817C6.16888 25.6217 9.84889 28.7817 13.7556 28.7817C17.9422 28.7817 21.3422 25.3817 21.3422 21.1817V12.7951C23.0129 13.9949 25.0187 14.6386 27.0756 14.6351V10.5151C27.0756 10.5151 24.5689 10.6351 22.7556 8.54174Z" fill="#F2F2F2"/>
</svg>
