<svg width="33" height="33" viewBox="0 0 33 33" fill="none" xmlns="http://www.w3.org/2000/svg">
<path d="M14.2667 20.7818L21.1867 16.7818L14.2667 12.7818V20.7818ZM29.68 10.3418C29.8533 10.9685 29.9733 11.8085 30.0533 12.8752C30.1467 13.9418 30.1867 14.8618 30.1867 15.6618L30.2667 16.7818C30.2667 19.7018 30.0533 21.8485 29.68 23.2218C29.3467 24.4218 28.5733 25.1952 27.3733 25.5285C26.7467 25.7018 25.6 25.8218 23.84 25.9018C22.1067 25.9952 20.52 26.0352 19.0533 26.0352L16.9333 26.1152C11.3467 26.1152 7.86667 25.9018 6.49334 25.5285C5.29334 25.1952 4.52001 24.4218 4.18667 23.2218C4.01334 22.5952 3.89334 21.7552 3.81334 20.6885C3.72001 19.6218 3.68001 18.7018 3.68001 17.9018L3.60001 16.7818C3.60001 13.8618 3.81334 11.7152 4.18667 10.3418C4.52001 9.14182 5.29334 8.36849 6.49334 8.03515C7.12001 7.86182 8.26667 7.74182 10.0267 7.66182C11.76 7.56849 13.3467 7.52849 14.8133 7.52849L16.9333 7.44849C22.52 7.44849 26 7.66182 27.3733 8.03515C28.5733 8.36849 29.3467 9.14182 29.68 10.3418Z" fill="#F2F2F2"/>
</svg>
